<mxfile host="app.diagrams.net" modified="2020-11-11T16:37:12.106Z" agent="5.0 (Windows NT 10.0; Win64; x64) AppleWebKit/537.36 (KHTML, like Gecko) Chrome/86.0.4240.183 Safari/537.36 Edg/86.0.622.63" etag="1p6r2uKksU7cQbU7rdjw" version="13.9.0" type="github">
  <diagram id="S6aOqGhqeq-BG47jcoKl" name="Page-1">
    <mxGraphModel dx="677" dy="383" grid="1" gridSize="10" guides="1" tooltips="1" connect="1" arrows="1" fold="1" page="1" pageScale="1" pageWidth="827" pageHeight="1169" math="0" shadow="0">
      <root>
        <mxCell id="0" />
        <mxCell id="1" parent="0" />
        <mxCell id="Q2K4f21obNatQnWwm_q--11" value="" style="rounded=0;whiteSpace=wrap;html=1;" parent="1" vertex="1">
          <mxGeometry x="70" y="40" width="708" height="1085" as="geometry" />
        </mxCell>
        <mxCell id="Q2K4f21obNatQnWwm_q--108" style="edgeStyle=orthogonalEdgeStyle;rounded=0;orthogonalLoop=1;jettySize=auto;html=1;entryX=0.079;entryY=0.219;entryDx=0;entryDy=0;entryPerimeter=0;" parent="1" source="Q2K4f21obNatQnWwm_q--3" target="Q2K4f21obNatQnWwm_q--95" edge="1">
          <mxGeometry relative="1" as="geometry">
            <Array as="points">
              <mxPoint x="45" y="270" />
              <mxPoint x="140" y="270" />
            </Array>
          </mxGeometry>
        </mxCell>
        <mxCell id="Q2K4f21obNatQnWwm_q--128" style="edgeStyle=orthogonalEdgeStyle;rounded=0;orthogonalLoop=1;jettySize=auto;html=1;exitX=0;exitY=0.3333333333333333;exitDx=0;exitDy=0;exitPerimeter=0;entryX=0;entryY=0.5;entryDx=0;entryDy=0;" parent="1" source="Q2K4f21obNatQnWwm_q--3" target="Q2K4f21obNatQnWwm_q--121" edge="1">
          <mxGeometry relative="1" as="geometry" />
        </mxCell>
        <mxCell id="Q2K4f21obNatQnWwm_q--140" style="edgeStyle=orthogonalEdgeStyle;rounded=0;orthogonalLoop=1;jettySize=auto;html=1;exitX=1;exitY=0.3333333333333333;exitDx=0;exitDy=0;exitPerimeter=0;entryX=0;entryY=0.5;entryDx=0;entryDy=0;" parent="1" source="Q2K4f21obNatQnWwm_q--3" target="Q2K4f21obNatQnWwm_q--122" edge="1">
          <mxGeometry relative="1" as="geometry" />
        </mxCell>
        <mxCell id="Q2K4f21obNatQnWwm_q--146" style="edgeStyle=orthogonalEdgeStyle;rounded=0;orthogonalLoop=1;jettySize=auto;html=1;exitX=0.5;exitY=0.5;exitDx=0;exitDy=0;exitPerimeter=0;entryX=0;entryY=0.5;entryDx=0;entryDy=0;" parent="1" source="Q2K4f21obNatQnWwm_q--3" target="Q2K4f21obNatQnWwm_q--143" edge="1">
          <mxGeometry relative="1" as="geometry" />
        </mxCell>
        <mxCell id="Q2K4f21obNatQnWwm_q--147" style="edgeStyle=orthogonalEdgeStyle;rounded=0;orthogonalLoop=1;jettySize=auto;html=1;exitX=0.5;exitY=0.5;exitDx=0;exitDy=0;exitPerimeter=0;entryX=0.046;entryY=0.273;entryDx=0;entryDy=0;entryPerimeter=0;" parent="1" source="Q2K4f21obNatQnWwm_q--3" target="Q2K4f21obNatQnWwm_q--142" edge="1">
          <mxGeometry relative="1" as="geometry">
            <Array as="points">
              <mxPoint x="45" y="160" />
              <mxPoint x="100" y="160" />
              <mxPoint x="100" y="216" />
            </Array>
          </mxGeometry>
        </mxCell>
        <mxCell id="Q2K4f21obNatQnWwm_q--3" value="Host" style="shape=umlActor;verticalLabelPosition=bottom;verticalAlign=top;html=1;outlineConnect=0;" parent="1" vertex="1">
          <mxGeometry x="30" y="120" width="30" height="60" as="geometry" />
        </mxCell>
        <mxCell id="Q2K4f21obNatQnWwm_q--84" style="edgeStyle=orthogonalEdgeStyle;rounded=0;orthogonalLoop=1;jettySize=auto;html=1;exitX=0.5;exitY=0.5;exitDx=0;exitDy=0;exitPerimeter=0;entryX=0;entryY=0.5;entryDx=0;entryDy=0;" parent="1" source="Q2K4f21obNatQnWwm_q--4" target="Q2K4f21obNatQnWwm_q--55" edge="1">
          <mxGeometry relative="1" as="geometry">
            <Array as="points">
              <mxPoint x="45" y="810" />
              <mxPoint x="120" y="810" />
            </Array>
          </mxGeometry>
        </mxCell>
        <mxCell id="Q2K4f21obNatQnWwm_q--98" style="edgeStyle=orthogonalEdgeStyle;rounded=0;orthogonalLoop=1;jettySize=auto;html=1;exitX=0.5;exitY=0.5;exitDx=0;exitDy=0;exitPerimeter=0;entryX=0;entryY=0.5;entryDx=0;entryDy=0;" parent="1" source="Q2K4f21obNatQnWwm_q--4" target="Q2K4f21obNatQnWwm_q--97" edge="1">
          <mxGeometry relative="1" as="geometry">
            <Array as="points">
              <mxPoint x="100" y="542" />
              <mxPoint x="100" y="632" />
            </Array>
          </mxGeometry>
        </mxCell>
        <mxCell id="Q2K4f21obNatQnWwm_q--117" style="edgeStyle=orthogonalEdgeStyle;rounded=0;orthogonalLoop=1;jettySize=auto;html=1;exitX=0.5;exitY=0;exitDx=0;exitDy=0;exitPerimeter=0;entryX=0.091;entryY=0.801;entryDx=0;entryDy=0;entryPerimeter=0;" parent="1" source="Q2K4f21obNatQnWwm_q--4" target="Q2K4f21obNatQnWwm_q--95" edge="1">
          <mxGeometry relative="1" as="geometry">
            <Array as="points">
              <mxPoint x="45" y="295" />
            </Array>
          </mxGeometry>
        </mxCell>
        <mxCell id="Q2K4f21obNatQnWwm_q--118" style="edgeStyle=orthogonalEdgeStyle;rounded=0;orthogonalLoop=1;jettySize=auto;html=1;exitX=0.75;exitY=0.1;exitDx=0;exitDy=0;exitPerimeter=0;entryX=0;entryY=0.5;entryDx=0;entryDy=0;" parent="1" source="Q2K4f21obNatQnWwm_q--4" target="Q2K4f21obNatQnWwm_q--57" edge="1">
          <mxGeometry relative="1" as="geometry">
            <Array as="points">
              <mxPoint x="53" y="452" />
            </Array>
          </mxGeometry>
        </mxCell>
        <mxCell id="Q2K4f21obNatQnWwm_q--131" style="edgeStyle=orthogonalEdgeStyle;rounded=0;orthogonalLoop=1;jettySize=auto;html=1;exitX=0;exitY=0.3333333333333333;exitDx=0;exitDy=0;exitPerimeter=0;entryX=0;entryY=1;entryDx=0;entryDy=0;" parent="1" source="Q2K4f21obNatQnWwm_q--4" target="Q2K4f21obNatQnWwm_q--121" edge="1">
          <mxGeometry relative="1" as="geometry">
            <Array as="points">
              <mxPoint x="10" y="531" />
              <mxPoint x="10" y="358" />
            </Array>
          </mxGeometry>
        </mxCell>
        <mxCell id="Q2K4f21obNatQnWwm_q--148" style="edgeStyle=orthogonalEdgeStyle;rounded=0;orthogonalLoop=1;jettySize=auto;html=1;exitX=0.25;exitY=0.1;exitDx=0;exitDy=0;exitPerimeter=0;entryX=0.057;entryY=0.744;entryDx=0;entryDy=0;entryPerimeter=0;" parent="1" source="Q2K4f21obNatQnWwm_q--4" target="Q2K4f21obNatQnWwm_q--142" edge="1">
          <mxGeometry relative="1" as="geometry">
            <Array as="points">
              <mxPoint x="38" y="237" />
            </Array>
            <mxPoint x="300" y="237" as="targetPoint" />
          </mxGeometry>
        </mxCell>
        <mxCell id="Q2K4f21obNatQnWwm_q--4" value="Guest" style="shape=umlActor;verticalLabelPosition=bottom;verticalAlign=top;html=1;outlineConnect=0;" parent="1" vertex="1">
          <mxGeometry x="30" y="510" width="30" height="64" as="geometry" />
        </mxCell>
        <mxCell id="Q2K4f21obNatQnWwm_q--5" value="Google&lt;br&gt;Account" style="shape=umlActor;verticalLabelPosition=bottom;verticalAlign=top;html=1;outlineConnect=0;" parent="1" vertex="1">
          <mxGeometry x="790" y="422" width="30" height="60" as="geometry" />
        </mxCell>
        <mxCell id="Q2K4f21obNatQnWwm_q--13" value="PayPal" style="shape=umlActor;verticalLabelPosition=bottom;verticalAlign=top;html=1;outlineConnect=0;" parent="1" vertex="1">
          <mxGeometry x="790" y="120" width="30" height="60" as="geometry" />
        </mxCell>
        <mxCell id="Q2K4f21obNatQnWwm_q--14" value="GMaps" style="shape=umlActor;verticalLabelPosition=bottom;verticalAlign=top;html=1;outlineConnect=0;" parent="1" vertex="1">
          <mxGeometry x="790" y="850" width="30" height="60" as="geometry" />
        </mxCell>
        <mxCell id="Q2K4f21obNatQnWwm_q--25" style="edgeStyle=orthogonalEdgeStyle;rounded=0;orthogonalLoop=1;jettySize=auto;html=1;exitX=0.5;exitY=0.5;exitDx=0;exitDy=0;exitPerimeter=0;entryX=0;entryY=0.5;entryDx=0;entryDy=0;" parent="1" source="Q2K4f21obNatQnWwm_q--16" target="Q2K4f21obNatQnWwm_q--24" edge="1">
          <mxGeometry relative="1" as="geometry" />
        </mxCell>
        <mxCell id="Q2K4f21obNatQnWwm_q--16" value="Admin" style="shape=umlActor;verticalLabelPosition=bottom;verticalAlign=top;html=1;outlineConnect=0;" parent="1" vertex="1">
          <mxGeometry x="30" y="1000" width="30" height="60" as="geometry" />
        </mxCell>
        <mxCell id="Q2K4f21obNatQnWwm_q--24" value="SuperLogin" style="ellipse;whiteSpace=wrap;html=1;" parent="1" vertex="1">
          <mxGeometry x="130" y="1008" width="80" height="44" as="geometry" />
        </mxCell>
        <mxCell id="Q2K4f21obNatQnWwm_q--91" style="edgeStyle=orthogonalEdgeStyle;rounded=0;orthogonalLoop=1;jettySize=auto;html=1;exitX=1;exitY=0.5;exitDx=0;exitDy=0;entryX=0.5;entryY=0.5;entryDx=0;entryDy=0;entryPerimeter=0;" parent="1" source="Q2K4f21obNatQnWwm_q--26" target="Q2K4f21obNatQnWwm_q--5" edge="1">
          <mxGeometry relative="1" as="geometry" />
        </mxCell>
        <mxCell id="Q2K4f21obNatQnWwm_q--26" value="Login" style="ellipse;whiteSpace=wrap;html=1;" parent="1" vertex="1">
          <mxGeometry x="630" y="430" width="80" height="44" as="geometry" />
        </mxCell>
        <mxCell id="Q2K4f21obNatQnWwm_q--42" style="edgeStyle=orthogonalEdgeStyle;rounded=0;orthogonalLoop=1;jettySize=auto;html=1;exitX=0;exitY=0.5;exitDx=0;exitDy=0;" parent="1" source="Q2K4f21obNatQnWwm_q--27" target="Q2K4f21obNatQnWwm_q--24" edge="1">
          <mxGeometry relative="1" as="geometry" />
        </mxCell>
        <mxCell id="Q2K4f21obNatQnWwm_q--50" value="extends" style="edgeLabel;html=1;align=center;verticalAlign=middle;resizable=0;points=[];" parent="Q2K4f21obNatQnWwm_q--42" vertex="1" connectable="0">
          <mxGeometry y="-1" relative="1" as="geometry">
            <mxPoint x="28" y="1" as="offset" />
          </mxGeometry>
        </mxCell>
        <mxCell id="Q2K4f21obNatQnWwm_q--27" value="Users Ban" style="ellipse;whiteSpace=wrap;html=1;" parent="1" vertex="1">
          <mxGeometry x="260" y="940" width="80" height="44" as="geometry" />
        </mxCell>
        <mxCell id="Q2K4f21obNatQnWwm_q--39" style="edgeStyle=orthogonalEdgeStyle;rounded=0;orthogonalLoop=1;jettySize=auto;html=1;exitX=0;exitY=0.5;exitDx=0;exitDy=0;entryX=1;entryY=0.5;entryDx=0;entryDy=0;" parent="1" source="Q2K4f21obNatQnWwm_q--28" target="Q2K4f21obNatQnWwm_q--24" edge="1">
          <mxGeometry relative="1" as="geometry" />
        </mxCell>
        <mxCell id="Q2K4f21obNatQnWwm_q--51" value="extends" style="edgeLabel;html=1;align=center;verticalAlign=middle;resizable=0;points=[];" parent="Q2K4f21obNatQnWwm_q--39" vertex="1" connectable="0">
          <mxGeometry x="-0.26" y="2" relative="1" as="geometry">
            <mxPoint as="offset" />
          </mxGeometry>
        </mxCell>
        <mxCell id="Q2K4f21obNatQnWwm_q--28" value="Remove Room&amp;nbsp;" style="ellipse;whiteSpace=wrap;html=1;" parent="1" vertex="1">
          <mxGeometry x="290" y="1008" width="80" height="44" as="geometry" />
        </mxCell>
        <mxCell id="Q2K4f21obNatQnWwm_q--40" style="edgeStyle=orthogonalEdgeStyle;rounded=0;orthogonalLoop=1;jettySize=auto;html=1;exitX=0;exitY=0.5;exitDx=0;exitDy=0;entryX=0.5;entryY=1;entryDx=0;entryDy=0;" parent="1" source="Q2K4f21obNatQnWwm_q--29" target="Q2K4f21obNatQnWwm_q--24" edge="1">
          <mxGeometry relative="1" as="geometry" />
        </mxCell>
        <mxCell id="Q2K4f21obNatQnWwm_q--52" value="extends" style="edgeLabel;html=1;align=center;verticalAlign=middle;resizable=0;points=[];" parent="Q2K4f21obNatQnWwm_q--40" vertex="1" connectable="0">
          <mxGeometry x="-0.1714" y="1" relative="1" as="geometry">
            <mxPoint x="18" y="-1" as="offset" />
          </mxGeometry>
        </mxCell>
        <mxCell id="Q2K4f21obNatQnWwm_q--29" value="View complains" style="ellipse;whiteSpace=wrap;html=1;" parent="1" vertex="1">
          <mxGeometry x="250" y="1070" width="100" height="44" as="geometry" />
        </mxCell>
        <mxCell id="Q2K4f21obNatQnWwm_q--55" value="Search Room" style="ellipse;whiteSpace=wrap;html=1;" parent="1" vertex="1">
          <mxGeometry x="120" y="790" width="80" height="44" as="geometry" />
        </mxCell>
        <mxCell id="Q2K4f21obNatQnWwm_q--61" style="edgeStyle=orthogonalEdgeStyle;rounded=0;orthogonalLoop=1;jettySize=auto;html=1;exitX=0;exitY=0.5;exitDx=0;exitDy=0;entryX=1;entryY=1;entryDx=0;entryDy=0;" parent="1" source="Q2K4f21obNatQnWwm_q--58" target="Q2K4f21obNatQnWwm_q--55" edge="1">
          <mxGeometry relative="1" as="geometry" />
        </mxCell>
        <mxCell id="Q2K4f21obNatQnWwm_q--63" value="extends" style="edgeLabel;html=1;align=center;verticalAlign=middle;resizable=0;points=[];" parent="Q2K4f21obNatQnWwm_q--61" vertex="1" connectable="0">
          <mxGeometry x="-0.0727" y="2" relative="1" as="geometry">
            <mxPoint x="2" y="1.17" as="offset" />
          </mxGeometry>
        </mxCell>
        <mxCell id="Q2K4f21obNatQnWwm_q--89" style="edgeStyle=orthogonalEdgeStyle;rounded=0;orthogonalLoop=1;jettySize=auto;html=1;exitX=1;exitY=0.5;exitDx=0;exitDy=0;entryX=0;entryY=0.3333333333333333;entryDx=0;entryDy=0;entryPerimeter=0;" parent="1" source="Q2K4f21obNatQnWwm_q--58" target="Q2K4f21obNatQnWwm_q--14" edge="1">
          <mxGeometry relative="1" as="geometry">
            <Array as="points">
              <mxPoint x="310" y="870" />
            </Array>
          </mxGeometry>
        </mxCell>
        <mxCell id="Q2K4f21obNatQnWwm_q--58" value="View Map" style="ellipse;whiteSpace=wrap;html=1;" parent="1" vertex="1">
          <mxGeometry x="230" y="850" width="80" height="44" as="geometry" />
        </mxCell>
        <mxCell id="Q2K4f21obNatQnWwm_q--85" value="extends" style="edgeStyle=orthogonalEdgeStyle;rounded=0;orthogonalLoop=1;jettySize=auto;html=1;exitX=0;exitY=0.5;exitDx=0;exitDy=0;entryX=1;entryY=0;entryDx=0;entryDy=0;" parent="1" source="Q2K4f21obNatQnWwm_q--59" target="Q2K4f21obNatQnWwm_q--55" edge="1">
          <mxGeometry x="-0.0951" relative="1" as="geometry">
            <mxPoint as="offset" />
            <Array as="points">
              <mxPoint x="290" y="796" />
            </Array>
          </mxGeometry>
        </mxCell>
        <mxCell id="Q2K4f21obNatQnWwm_q--59" value="Set Filter" style="ellipse;whiteSpace=wrap;html=1;" parent="1" vertex="1">
          <mxGeometry x="290" y="770" width="80" height="44" as="geometry" />
        </mxCell>
        <mxCell id="Q2K4f21obNatQnWwm_q--104" style="edgeStyle=orthogonalEdgeStyle;rounded=0;orthogonalLoop=1;jettySize=auto;html=1;exitX=0;exitY=0.5;exitDx=0;exitDy=0;entryX=1;entryY=0;entryDx=0;entryDy=0;" parent="1" source="Q2K4f21obNatQnWwm_q--69" target="Q2K4f21obNatQnWwm_q--97" edge="1">
          <mxGeometry relative="1" as="geometry">
            <Array as="points">
              <mxPoint x="280" y="610" />
              <mxPoint x="188" y="610" />
            </Array>
          </mxGeometry>
        </mxCell>
        <mxCell id="Q2K4f21obNatQnWwm_q--106" value="extends" style="edgeLabel;html=1;align=center;verticalAlign=middle;resizable=0;points=[];" parent="Q2K4f21obNatQnWwm_q--104" vertex="1" connectable="0">
          <mxGeometry x="-0.0847" y="-2" relative="1" as="geometry">
            <mxPoint x="3" y="2" as="offset" />
          </mxGeometry>
        </mxCell>
        <mxCell id="Q2K4f21obNatQnWwm_q--69" value="Share Room Link&amp;nbsp;" style="ellipse;whiteSpace=wrap;html=1;" parent="1" vertex="1">
          <mxGeometry x="280" y="585" width="80" height="44" as="geometry" />
        </mxCell>
        <mxCell id="Q2K4f21obNatQnWwm_q--99" style="edgeStyle=orthogonalEdgeStyle;rounded=0;orthogonalLoop=1;jettySize=auto;html=1;exitX=0;exitY=0.5;exitDx=0;exitDy=0;entryX=0.5;entryY=1;entryDx=0;entryDy=0;" parent="1" source="Q2K4f21obNatQnWwm_q--70" target="Q2K4f21obNatQnWwm_q--97" edge="1">
          <mxGeometry relative="1" as="geometry" />
        </mxCell>
        <mxCell id="Q2K4f21obNatQnWwm_q--100" value="extends" style="edgeLabel;html=1;align=center;verticalAlign=middle;resizable=0;points=[];" parent="Q2K4f21obNatQnWwm_q--99" vertex="1" connectable="0">
          <mxGeometry x="0.0328" y="-1" relative="1" as="geometry">
            <mxPoint x="23" y="1" as="offset" />
          </mxGeometry>
        </mxCell>
        <mxCell id="Q2K4f21obNatQnWwm_q--70" value="Browse gallery" style="ellipse;whiteSpace=wrap;html=1;" parent="1" vertex="1">
          <mxGeometry x="230" y="700" width="80" height="44" as="geometry" />
        </mxCell>
        <mxCell id="Q2K4f21obNatQnWwm_q--119" style="edgeStyle=orthogonalEdgeStyle;rounded=0;orthogonalLoop=1;jettySize=auto;html=1;exitX=0;exitY=0.5;exitDx=0;exitDy=0;entryX=0.5;entryY=0;entryDx=0;entryDy=0;" parent="1" source="Q2K4f21obNatQnWwm_q--76" target="Q2K4f21obNatQnWwm_q--97" edge="1">
          <mxGeometry relative="1" as="geometry" />
        </mxCell>
        <mxCell id="Q2K4f21obNatQnWwm_q--120" value="extends" style="edgeLabel;html=1;align=center;verticalAlign=middle;resizable=0;points=[];" parent="Q2K4f21obNatQnWwm_q--119" vertex="1" connectable="0">
          <mxGeometry x="-0.3203" y="1" relative="1" as="geometry">
            <mxPoint y="-1" as="offset" />
          </mxGeometry>
        </mxCell>
        <mxCell id="Q2K4f21obNatQnWwm_q--137" style="edgeStyle=orthogonalEdgeStyle;rounded=0;orthogonalLoop=1;jettySize=auto;html=1;exitX=1;exitY=0.5;exitDx=0;exitDy=0;entryX=0.5;entryY=1;entryDx=0;entryDy=0;" parent="1" source="Q2K4f21obNatQnWwm_q--76" target="Q2K4f21obNatQnWwm_q--26" edge="1">
          <mxGeometry relative="1" as="geometry">
            <Array as="points">
              <mxPoint x="670" y="542" />
            </Array>
          </mxGeometry>
        </mxCell>
        <mxCell id="Q2K4f21obNatQnWwm_q--138" value="include" style="edgeLabel;html=1;align=center;verticalAlign=middle;resizable=0;points=[];" parent="Q2K4f21obNatQnWwm_q--137" vertex="1" connectable="0">
          <mxGeometry x="-0.2698" y="1" relative="1" as="geometry">
            <mxPoint as="offset" />
          </mxGeometry>
        </mxCell>
        <mxCell id="Q2K4f21obNatQnWwm_q--76" value="Add to Favourites" style="ellipse;whiteSpace=wrap;html=1;" parent="1" vertex="1">
          <mxGeometry x="210" y="520" width="80" height="44" as="geometry" />
        </mxCell>
        <mxCell id="Q2K4f21obNatQnWwm_q--132" style="edgeStyle=orthogonalEdgeStyle;rounded=0;orthogonalLoop=1;jettySize=auto;html=1;exitX=1;exitY=0.5;exitDx=0;exitDy=0;entryX=0;entryY=0;entryDx=0;entryDy=0;" parent="1" source="Q2K4f21obNatQnWwm_q--95" target="Q2K4f21obNatQnWwm_q--26" edge="1">
          <mxGeometry relative="1" as="geometry">
            <Array as="points">
              <mxPoint x="642" y="282" />
            </Array>
          </mxGeometry>
        </mxCell>
        <mxCell id="Q2K4f21obNatQnWwm_q--133" value="include" style="edgeLabel;html=1;align=center;verticalAlign=middle;resizable=0;points=[];" parent="Q2K4f21obNatQnWwm_q--132" vertex="1" connectable="0">
          <mxGeometry x="-0.5593" y="-4" relative="1" as="geometry">
            <mxPoint x="-3" y="-4" as="offset" />
          </mxGeometry>
        </mxCell>
        <mxCell id="Q2K4f21obNatQnWwm_q--95" value="Post review" style="ellipse;whiteSpace=wrap;html=1;" parent="1" vertex="1">
          <mxGeometry x="140" y="260" width="80" height="44" as="geometry" />
        </mxCell>
        <mxCell id="Q2K4f21obNatQnWwm_q--101" style="edgeStyle=orthogonalEdgeStyle;rounded=0;orthogonalLoop=1;jettySize=auto;html=1;exitX=0;exitY=0.5;exitDx=0;exitDy=0;" parent="1" source="Q2K4f21obNatQnWwm_q--96" target="Q2K4f21obNatQnWwm_q--97" edge="1">
          <mxGeometry relative="1" as="geometry" />
        </mxCell>
        <mxCell id="Q2K4f21obNatQnWwm_q--102" value="extends" style="edgeLabel;html=1;align=center;verticalAlign=middle;resizable=0;points=[];" parent="Q2K4f21obNatQnWwm_q--101" vertex="1" connectable="0">
          <mxGeometry x="-0.14" y="-1" relative="1" as="geometry">
            <mxPoint as="offset" />
          </mxGeometry>
        </mxCell>
        <mxCell id="Q2K4f21obNatQnWwm_q--96" value="View details" style="ellipse;whiteSpace=wrap;html=1;" parent="1" vertex="1">
          <mxGeometry x="254" y="650" width="80" height="44" as="geometry" />
        </mxCell>
        <mxCell id="Q2K4f21obNatQnWwm_q--97" value="Vedi annuncio" style="ellipse;whiteSpace=wrap;html=1;" parent="1" vertex="1">
          <mxGeometry x="120" y="610" width="80" height="44" as="geometry" />
        </mxCell>
        <mxCell id="A3zRzVIrhdaoTugr8JHT-1" style="edgeStyle=orthogonalEdgeStyle;rounded=0;orthogonalLoop=1;jettySize=auto;html=1;exitX=1;exitY=0.5;exitDx=0;exitDy=0;entryX=0;entryY=0.5;entryDx=0;entryDy=0;" parent="1" source="Q2K4f21obNatQnWwm_q--57" target="Q2K4f21obNatQnWwm_q--26" edge="1">
          <mxGeometry relative="1" as="geometry">
            <Array as="points">
              <mxPoint x="610" y="452" />
              <mxPoint x="610" y="452" />
            </Array>
          </mxGeometry>
        </mxCell>
        <mxCell id="A3zRzVIrhdaoTugr8JHT-2" value="include" style="edgeLabel;html=1;align=center;verticalAlign=middle;resizable=0;points=[];" parent="A3zRzVIrhdaoTugr8JHT-1" vertex="1" connectable="0">
          <mxGeometry x="-0.3719" y="-3" relative="1" as="geometry">
            <mxPoint as="offset" />
          </mxGeometry>
        </mxCell>
        <mxCell id="Q2K4f21obNatQnWwm_q--57" value="Send Request" style="ellipse;whiteSpace=wrap;html=1;" parent="1" vertex="1">
          <mxGeometry x="180" y="430" width="90" height="44" as="geometry" />
        </mxCell>
        <mxCell id="Q2K4f21obNatQnWwm_q--124" style="edgeStyle=orthogonalEdgeStyle;rounded=0;orthogonalLoop=1;jettySize=auto;html=1;exitX=1;exitY=0;exitDx=0;exitDy=0;entryX=0.5;entryY=0.5;entryDx=0;entryDy=0;entryPerimeter=0;" parent="1" source="Q2K4f21obNatQnWwm_q--121" target="Q2K4f21obNatQnWwm_q--13" edge="1">
          <mxGeometry relative="1" as="geometry" />
        </mxCell>
        <mxCell id="A3zRzVIrhdaoTugr8JHT-4" style="edgeStyle=orthogonalEdgeStyle;rounded=0;orthogonalLoop=1;jettySize=auto;html=1;exitX=0.5;exitY=1;exitDx=0;exitDy=0;entryX=0.038;entryY=0.318;entryDx=0;entryDy=0;entryPerimeter=0;" parent="1" source="Q2K4f21obNatQnWwm_q--121" target="Q2K4f21obNatQnWwm_q--26" edge="1">
          <mxGeometry relative="1" as="geometry">
            <Array as="points">
              <mxPoint x="290" y="400" />
              <mxPoint x="633" y="400" />
            </Array>
          </mxGeometry>
        </mxCell>
        <mxCell id="A3zRzVIrhdaoTugr8JHT-5" value="include" style="edgeLabel;html=1;align=center;verticalAlign=middle;resizable=0;points=[];" parent="A3zRzVIrhdaoTugr8JHT-4" vertex="1" connectable="0">
          <mxGeometry x="-0.1773" relative="1" as="geometry">
            <mxPoint as="offset" />
          </mxGeometry>
        </mxCell>
        <mxCell id="Q2K4f21obNatQnWwm_q--121" value="Process&lt;br&gt;Payment" style="ellipse;whiteSpace=wrap;html=1;" parent="1" vertex="1">
          <mxGeometry x="250" y="320" width="80" height="44" as="geometry" />
        </mxCell>
        <mxCell id="Q2K4f21obNatQnWwm_q--144" style="edgeStyle=orthogonalEdgeStyle;rounded=0;orthogonalLoop=1;jettySize=auto;html=1;exitX=1;exitY=0;exitDx=0;exitDy=0;entryX=0;entryY=0.5;entryDx=0;entryDy=0;" parent="1" source="Q2K4f21obNatQnWwm_q--122" target="Q2K4f21obNatQnWwm_q--141" edge="1">
          <mxGeometry relative="1" as="geometry">
            <Array as="points">
              <mxPoint x="240" y="97" />
              <mxPoint x="240" y="72" />
            </Array>
          </mxGeometry>
        </mxCell>
        <mxCell id="Q2K4f21obNatQnWwm_q--145" value="extend" style="edgeLabel;html=1;align=center;verticalAlign=middle;resizable=0;points=[];" parent="Q2K4f21obNatQnWwm_q--144" vertex="1" connectable="0">
          <mxGeometry x="-0.0428" y="1" relative="1" as="geometry">
            <mxPoint x="22.700000000000003" y="0.95" as="offset" />
          </mxGeometry>
        </mxCell>
        <mxCell id="Q2K4f21obNatQnWwm_q--151" style="edgeStyle=orthogonalEdgeStyle;rounded=0;orthogonalLoop=1;jettySize=auto;html=1;exitX=1;exitY=0.5;exitDx=0;exitDy=0;entryX=1;entryY=0;entryDx=0;entryDy=0;" parent="1" source="Q2K4f21obNatQnWwm_q--122" target="Q2K4f21obNatQnWwm_q--26" edge="1">
          <mxGeometry relative="1" as="geometry">
            <Array as="points">
              <mxPoint x="699" y="112" />
            </Array>
          </mxGeometry>
        </mxCell>
        <mxCell id="Q2K4f21obNatQnWwm_q--153" value="include" style="edgeLabel;html=1;align=center;verticalAlign=middle;resizable=0;points=[];" parent="Q2K4f21obNatQnWwm_q--151" vertex="1" connectable="0">
          <mxGeometry x="-0.6498" y="2" relative="1" as="geometry">
            <mxPoint as="offset" />
          </mxGeometry>
        </mxCell>
        <mxCell id="Q2K4f21obNatQnWwm_q--122" value="Post Room" style="ellipse;whiteSpace=wrap;html=1;" parent="1" vertex="1">
          <mxGeometry x="200" y="90" width="80" height="44" as="geometry" />
        </mxCell>
        <mxCell id="Q2K4f21obNatQnWwm_q--141" value="Add Photo" style="ellipse;whiteSpace=wrap;html=1;" parent="1" vertex="1">
          <mxGeometry x="334" y="50" width="80" height="44" as="geometry" />
        </mxCell>
        <mxCell id="Q2K4f21obNatQnWwm_q--149" style="edgeStyle=orthogonalEdgeStyle;rounded=0;orthogonalLoop=1;jettySize=auto;html=1;exitX=1;exitY=0.5;exitDx=0;exitDy=0;" parent="1" source="Q2K4f21obNatQnWwm_q--142" target="Q2K4f21obNatQnWwm_q--26" edge="1">
          <mxGeometry relative="1" as="geometry" />
        </mxCell>
        <mxCell id="Q2K4f21obNatQnWwm_q--155" value="include" style="edgeLabel;html=1;align=center;verticalAlign=middle;resizable=0;points=[];" parent="Q2K4f21obNatQnWwm_q--149" vertex="1" connectable="0">
          <mxGeometry x="-0.6842" y="-1" relative="1" as="geometry">
            <mxPoint as="offset" />
          </mxGeometry>
        </mxCell>
        <mxCell id="Q2K4f21obNatQnWwm_q--142" value="Chat system" style="ellipse;whiteSpace=wrap;html=1;" parent="1" vertex="1">
          <mxGeometry x="300" y="204" width="80" height="44" as="geometry" />
        </mxCell>
        <mxCell id="Q2K4f21obNatQnWwm_q--152" style="edgeStyle=orthogonalEdgeStyle;rounded=0;orthogonalLoop=1;jettySize=auto;html=1;exitX=1;exitY=0.5;exitDx=0;exitDy=0;entryX=0.675;entryY=-0.045;entryDx=0;entryDy=0;entryPerimeter=0;" parent="1" source="Q2K4f21obNatQnWwm_q--143" target="Q2K4f21obNatQnWwm_q--26" edge="1">
          <mxGeometry relative="1" as="geometry" />
        </mxCell>
        <mxCell id="Q2K4f21obNatQnWwm_q--154" value="include" style="edgeLabel;html=1;align=center;verticalAlign=middle;resizable=0;points=[];" parent="Q2K4f21obNatQnWwm_q--152" vertex="1" connectable="0">
          <mxGeometry x="-0.5425" y="2" relative="1" as="geometry">
            <mxPoint as="offset" />
          </mxGeometry>
        </mxCell>
        <mxCell id="Q2K4f21obNatQnWwm_q--143" value="Reply request" style="ellipse;whiteSpace=wrap;html=1;" parent="1" vertex="1">
          <mxGeometry x="200" y="160" width="80" height="44" as="geometry" />
        </mxCell>
        <mxCell id="A3zRzVIrhdaoTugr8JHT-3" value="&lt;font style=&quot;font-size: 16px&quot;&gt;&lt;b&gt;DoveStudi&lt;/b&gt;&lt;/font&gt;" style="text;html=1;align=center;verticalAlign=middle;resizable=0;points=[];autosize=1;" parent="1" vertex="1">
          <mxGeometry x="369" y="10" width="90" height="20" as="geometry" />
        </mxCell>
      </root>
    </mxGraphModel>
  </diagram>
</mxfile>
